<svg xmlns="http://www.w3.org/2000/svg" viewBox="0 0 100 100" fill="none">
  <path d="M84 65C76 71 64 75 54 75C40 75 27 69 18 60C17 59 18 58 19 59C29 65 41 69 54 69C63 69 73 67 82 63C84 62 86 64 84 65Z" fill="#FF9900"/>
  <path d="M88 60C87 59 78 60 75 60C73 60 73 59 73 58V35C73 34 73 33 74 33H83C84 33 84 34 84 35V40C84 41 85 41 86 40C88 37 91 33 93 31C93 31 94 30 95 31L99 36C100 37 99 38 98 39C96 41 93 45 91 48C90 49 91 50 92 49L99 44C100 43 101 44 100 45L94 54C93 55 92 55 91 54C89 53 86 51 84 50C83 50 83 50 83 51V58C83 64 79 69 72 70C67 71 63 69 61 67C60 66 61 65 62 65C64 65 67 64 69 63C72 62 73 60 73 58C73 56 73 54 71 54C70 54 67 54 64 56C63 57 62 56 62 55L64 50C65 49 66 49 67 49C70 49 73 49 75 49C77 49 77 48 77 47V35C77 31 75 28 71 28H55C51 28 49 31 49 35V65C49 69 51 72 55 72H71C75 72 77 69 77 65V63C77 62 78 62 78 63C80 68 84 71 88 71C91 71 93 70 94 69C95 68 94 67 93 67C91 68 89 68 88 67C86 66 85 64 85 61C85 60 86 60 88 60Z" fill="#232F3E"/>
</svg>

