<svg xmlns="http://www.w3.org/2000/svg" viewBox="0 0 200 32" fill="none">
  <rect x="5" y="5" width="35" height="22" rx="4" fill="#1434CB"/>
  <path d="M15 16L25 16" stroke="white" stroke-width="2"/>
  <path d="M20 11L20 21" stroke="white" stroke-width="2"/>
  
  <rect x="45" y="5" width="35" height="22" rx="4" fill="#FF5F00"/>
  <circle cx="55" cy="16" r="5" fill="#EB001B"/>
  <circle cx="70" cy="16" r="5" fill="#F79E1B"/>
  
  <rect x="85" y="5" width="35" height="22" rx="4" fill="#5F6368"/>
  <path d="M95 11H110V21H95V11Z" fill="white"/>
  <path d="M100 16L105 16" stroke="#5F6368" stroke-width="2"/>
  
  <rect x="125" y="5" width="35" height="22" rx="4" fill="#6772E5"/>
  <path d="M135 16L150 16" stroke="white" stroke-width="2"/>
  <path d="M135 12L150 12" stroke="white" stroke-width="2"/>
  <path d="M135 20L150 20" stroke="white" stroke-width="2"/>
  
  <rect x="165" y="5" width="30" height="22" rx="4" fill="#2DA94F"/>
  <path d="M175 16C175 13.7909 176.791 12 179 12H181C183.209 12 185 13.7909 185 16C185 18.2091 183.209 20 181 20H179C176.791 20 175 18.2091 175 16Z" fill="white"/>
</svg>

